# Blender 3.3.1
# www.blender.org
mtllib FirstHumanModel.mtl
o Cube
v 0.417552 7.319770 -0.131270
v 0.583769 6.440269 -0.178223
v 0.417552 7.319770 0.131271
v 0.583769 6.440269 0.178223
v -0.463496 7.311119 -0.131270
v -0.612412 6.428524 -0.178223
v -0.463496 7.311119 0.131271
v -0.612412 6.428524 0.178223
vn -0.0098 1.0000 -0.0000
vn -0.0005 0.0532 0.9986
vn -0.9861 0.1664 -0.0000
vn 0.0098 -1.0000 -0.0000
vn 0.9826 0.1857 -0.0000
vn -0.0005 0.0532 -0.9986
vt 0.625000 0.500000
vt 0.375000 0.500000
vt 0.625000 0.750000
vt 0.375000 0.750000
vt 0.875000 0.500000
vt 0.625000 0.250000
vt 0.125000 0.500000
vt 0.375000 0.250000
vt 0.875000 0.750000
vt 0.625000 1.000000
vt 0.625000 0.000000
vt 0.375000 1.000000
vt 0.375000 0.000000
vt 0.125000 0.750000
s 0
usemtl Material
f 1/1/1 5/5/1 7/9/1 3/3/1
f 4/4/2 3/3/2 7/10/2 8/12/2
f 8/13/3 7/11/3 5/6/3 6/8/3
f 6/7/4 2/2/4 4/4/4 8/14/4
f 2/2/5 1/1/5 3/3/5 4/4/5
f 6/8/6 5/6/6 1/1/6 2/2/6
o Cube.001
v -0.870195 3.590429 0.259295
v -0.868317 6.373374 0.259295
v -0.878430 3.589503 -0.259294
v -0.879226 6.392580 -0.259294
v 0.870734 3.590781 0.259295
v 0.856296 6.399657 0.259295
v 0.871671 3.591392 -0.259294
v 0.856074 6.418281 -0.259294
vn -0.9998 0.0002 0.0185
vn -0.0000 -0.0000 -1.0000
vn 1.0000 0.0053 0.0008
vn -0.0000 -0.0000 1.0000
vn 0.0006 -1.0000 0.0003
vn -0.0150 0.9992 0.0366
vt 0.375000 0.000000
vt 0.375000 1.000000
vt 0.125000 0.750000
vt 0.625000 0.000000
vt 0.625000 1.000000
vt 0.875000 0.750000
vt 0.375000 0.250000
vt 0.125000 0.500000
vt 0.625000 0.250000
vt 0.875000 0.500000
vt 0.375000 0.750000
vt 0.625000 0.750000
vt 0.375000 0.500000
vt 0.625000 0.500000
s 0
f 9/15/7 10/18/7 12/23/7 11/21/7
f 11/21/8 12/23/8 16/28/8 15/27/8
f 15/27/9 16/28/9 14/26/9 13/25/9
f 13/25/10 14/26/10 10/19/10 9/16/10
f 11/22/11 15/27/11 13/25/11 9/17/11
f 16/28/12 12/24/12 10/20/12 14/26/12
o Cube.002
v 0.895276 3.987615 0.259295
v 0.871492 6.409863 0.259295
v 0.895276 3.987615 -0.259294
v 0.871492 6.409863 -0.259294
v 1.281216 3.991404 0.259295
v 1.257432 6.413653 0.259295
v 1.281216 3.991404 -0.259294
v 1.257432 6.413653 -0.259294
vn -1.0000 -0.0098 -0.0000
vn -0.0000 -0.0000 -1.0000
vn 1.0000 0.0098 -0.0000
vn -0.0000 -0.0000 1.0000
vn 0.0098 -1.0000 -0.0000
vn -0.0098 1.0000 -0.0000
vt 0.375000 0.000000
vt 0.375000 1.000000
vt 0.125000 0.750000
vt 0.625000 0.000000
vt 0.625000 1.000000
vt 0.875000 0.750000
vt 0.375000 0.250000
vt 0.125000 0.500000
vt 0.625000 0.250000
vt 0.875000 0.500000
vt 0.375000 0.750000
vt 0.625000 0.750000
vt 0.375000 0.500000
vt 0.625000 0.500000
s 0
f 17/29/13 18/32/13 20/37/13 19/35/13
f 19/35/14 20/37/14 24/42/14 23/41/14
f 23/41/15 24/42/15 22/40/15 21/39/15
f 21/39/16 22/40/16 18/33/16 17/30/16
f 19/36/17 23/41/17 21/39/17 17/31/17
f 24/42/18 20/38/18 18/34/18 22/40/18
o Cube.003
v -1.617709 4.019558 0.259295
v -1.266898 6.416387 0.259295
v -1.617709 4.019558 -0.259294
v -1.266898 6.416387 -0.259294
v -1.235819 3.963663 0.259295
v -0.885008 6.360491 0.259295
v -1.235819 3.963663 -0.259294
v -0.885008 6.360491 -0.259294
vn -0.9895 0.1448 -0.0000
vn -0.0000 -0.0000 -1.0000
vn 0.9895 -0.1448 -0.0000
vn -0.0000 -0.0000 1.0000
vn -0.1448 -0.9895 -0.0000
vn 0.1448 0.9895 -0.0000
vt 0.375000 0.000000
vt 0.375000 1.000000
vt 0.125000 0.750000
vt 0.625000 0.000000
vt 0.625000 1.000000
vt 0.875000 0.750000
vt 0.375000 0.250000
vt 0.125000 0.500000
vt 0.625000 0.250000
vt 0.875000 0.500000
vt 0.375000 0.750000
vt 0.625000 0.750000
vt 0.375000 0.500000
vt 0.625000 0.500000
s 0
f 25/43/19 26/46/19 28/51/19 27/49/19
f 27/49/20 28/51/20 32/56/20 31/55/20
f 31/55/21 32/56/21 30/54/21 29/53/21
f 29/53/22 30/54/22 26/47/22 25/44/22
f 27/50/23 31/55/23 29/53/23 25/45/23
f 32/56/24 28/52/24 26/48/24 30/54/24
o Cube.004
v 0.242495 1.160655 0.259295
v 0.242495 3.583021 0.259295
v 0.242495 1.160655 -0.259294
v 0.242495 3.583021 -0.259294
v 0.628453 1.160655 0.259295
v 0.628453 3.583021 0.259295
v 0.628453 1.160655 -0.259294
v 0.628453 3.583021 -0.259294
vn -1.0000 -0.0000 -0.0000
vn -0.0000 -0.0000 -1.0000
vn 1.0000 -0.0000 -0.0000
vn -0.0000 -0.0000 1.0000
vn -0.0000 -1.0000 -0.0000
vn -0.0000 1.0000 -0.0000
vt 0.375000 0.000000
vt 0.375000 1.000000
vt 0.125000 0.750000
vt 0.625000 0.000000
vt 0.625000 1.000000
vt 0.875000 0.750000
vt 0.375000 0.250000
vt 0.125000 0.500000
vt 0.625000 0.250000
vt 0.875000 0.500000
vt 0.375000 0.750000
vt 0.625000 0.750000
vt 0.375000 0.500000
vt 0.625000 0.500000
s 0
f 33/57/25 34/60/25 36/65/25 35/63/25
f 35/63/26 36/65/26 40/70/26 39/69/26
f 39/69/27 40/70/27 38/68/27 37/67/27
f 37/67/28 38/68/28 34/61/28 33/58/28
f 35/64/29 39/69/29 37/67/29 33/59/29
f 40/70/30 36/66/30 34/62/30 38/68/30
o Cube.005
v -0.684283 1.160655 0.259295
v -0.684283 3.583021 0.259295
v -0.684283 1.160655 -0.259294
v -0.684283 3.583021 -0.259294
v -0.298324 1.160655 0.259295
v -0.298324 3.583021 0.259295
v -0.298324 1.160655 -0.259294
v -0.298324 3.583021 -0.259294
vn -1.0000 -0.0000 -0.0000
vn -0.0000 -0.0000 -1.0000
vn 1.0000 -0.0000 -0.0000
vn -0.0000 -0.0000 1.0000
vn -0.0000 -1.0000 -0.0000
vn -0.0000 1.0000 -0.0000
vt 0.375000 0.000000
vt 0.375000 1.000000
vt 0.125000 0.750000
vt 0.625000 0.000000
vt 0.625000 1.000000
vt 0.875000 0.750000
vt 0.375000 0.250000
vt 0.125000 0.500000
vt 0.625000 0.250000
vt 0.875000 0.500000
vt 0.375000 0.750000
vt 0.625000 0.750000
vt 0.375000 0.500000
vt 0.625000 0.500000
s 0
f 41/71/31 42/74/31 44/79/31 43/77/31
f 43/77/32 44/79/32 48/84/32 47/83/32
f 47/83/33 48/84/33 46/82/33 45/81/33
f 45/81/34 46/82/34 42/75/34 41/72/34
f 43/78/35 47/83/35 45/81/35 41/73/35
f 48/84/36 44/80/36 42/76/36 46/82/36
